<svg width="51" height="41" viewBox="0 0 51 41" fill="none" xmlns="http://www.w3.org/2000/svg">
<path d="M49.6446 23.4985H23.0662C22.802 23.4985 22.5487 23.6043 22.3627 23.7925C22.1766 23.9808 22.0731 24.2356 22.0752 24.5007L22.1767 37.3417C22.1811 37.8878 22.6234 38.3281 23.1676 38.3281H31.911C32.4582 38.3281 32.9019 37.8829 32.9019 37.3338C32.9019 36.7848 32.4582 36.3395 31.911 36.3395H24.1507L24.0649 25.4871H48.6614L48.7471 36.3395H40.9011C40.3539 36.3395 39.9102 36.7848 39.9102 37.3338C39.9102 37.8829 40.3539 38.3281 40.9011 38.3281H49.7461C50.0103 38.3281 50.2636 38.2223 50.4496 38.0341C50.6357 37.8459 50.7391 37.5911 50.737 37.326L50.6356 24.485C50.6312 23.9388 50.1888 23.4985 49.6446 23.4985Z" fill="#12B7B6"/>
<path d="M37.339 36.9526C37.1792 36.568 36.7862 36.3172 36.3707 36.3398C35.9586 36.3622 35.5963 36.6487 35.476 37.0445C35.3573 37.4345 35.4965 37.8754 35.8206 38.1224C36.1561 38.3782 36.6229 38.3934 36.9743 38.1601C37.3645 37.901 37.5152 37.3848 37.339 36.9526Z" fill="#12B7B6"/>
<path d="M9.18629 21.6953C4.12096 21.6953 0 25.8307 0 30.9138C0 35.9969 4.12096 40.1323 9.18629 40.1323C14.2516 40.1323 18.3727 35.9969 18.3727 30.9138C18.3727 25.8307 14.2516 21.6953 9.18629 21.6953ZM9.18629 38.1438C5.21378 38.1438 1.9819 34.9004 1.9819 30.9138C1.9819 26.9272 5.21378 23.6838 9.18629 23.6838C13.1589 23.6838 16.3908 26.9272 16.3908 30.9138C16.3908 34.9004 13.1589 38.1438 9.18629 38.1438Z" fill="#12B7B6"/>
<path d="M9.18678 0C4.12145 0 0.000488281 4.13534 0.000488281 9.21851C0.000488281 14.3016 4.12145 18.437 9.18678 18.437C14.2521 18.437 18.3732 14.3016 18.3732 9.21851C18.3732 4.13534 14.2521 0 9.18678 0ZM9.18678 16.4485C5.21426 16.4485 1.98239 13.2051 1.98239 9.21851C1.98239 5.23181 5.21426 1.98843 9.18678 1.98843C13.1594 1.98843 16.3913 5.23181 16.3913 9.21851C16.3913 13.2051 13.1594 16.4485 9.18678 16.4485Z" fill="#12B7B6"/>
<path d="M11.7751 6.62083C11.3882 6.23244 10.7607 6.23254 10.3737 6.62093L9.18645 7.81245L7.99929 6.62093C7.61252 6.23274 6.98496 6.23264 6.59789 6.62083C6.21093 7.00902 6.21083 7.63864 6.59779 8.02703L7.78525 9.21875L6.59779 10.4105C6.21083 10.7988 6.21093 11.4284 6.59789 11.8167C6.79132 12.0109 7.04491 12.1079 7.29849 12.1079C7.55208 12.1079 7.80576 12.0108 7.99919 11.8166L9.18645 10.625L10.3737 11.8166C10.5671 12.0108 10.8208 12.1079 11.0744 12.1079C11.328 12.1079 11.5816 12.0108 11.775 11.8167C12.162 11.4285 12.1621 10.7989 11.7751 10.4105L10.5877 9.21875L11.7751 8.02703C12.1622 7.63874 12.1621 7.00912 11.7751 6.62083Z" fill="#12B7B6"/>
<path d="M23.1676 16.6338H49.7461C50.0103 16.6338 50.2636 16.528 50.4496 16.3398C50.6357 16.1516 50.7391 15.8967 50.737 15.6317L50.6356 2.7911C50.6312 2.24505 50.1888 1.80469 49.6446 1.80469H23.0662C22.802 1.80469 22.5487 1.91058 22.3627 2.09869C22.1766 2.28691 22.0731 2.54174 22.0752 2.80681L22.1767 15.6474C22.1811 16.1934 22.6234 16.6338 23.1676 16.6338ZM48.6615 3.79312L48.7472 14.6452H24.1508L24.065 3.79312H48.6615Z" fill="#12B7B6"/>
<path d="M29.2868 8.11963H45.3216C45.8689 8.11963 46.3126 7.67445 46.3126 7.12549C46.3126 6.57652 45.8689 6.13135 45.3216 6.13135H29.2868C28.7396 6.13135 28.2959 6.57652 28.2959 7.12549C28.2959 7.67445 28.7396 8.11963 29.2868 8.11963Z" fill="#12B7B6"/>
<path d="M29.2868 12.3057H39.6189C40.1662 12.3057 40.6098 11.8606 40.6098 11.3115C40.6098 10.7626 40.1662 10.3174 39.6189 10.3174H29.2868C28.7396 10.3174 28.2959 10.7626 28.2959 11.3115C28.2959 11.8606 28.7396 12.3057 29.2868 12.3057Z" fill="#12B7B6"/>
<path d="M29.2868 30.1343H45.3216C45.8689 30.1343 46.3126 29.6891 46.3126 29.1401C46.3126 28.5911 45.8689 28.146 45.3216 28.146H29.2868C28.7396 28.146 28.2959 28.5911 28.2959 29.1401C28.2959 29.6891 28.7396 30.1343 29.2868 30.1343Z" fill="#12B7B6"/>
<path d="M40.6098 33.3269C40.6098 32.7778 40.1662 32.3325 39.6189 32.3325H29.2868C28.7396 32.3325 28.2959 32.7778 28.2959 33.3269C28.2959 33.876 28.7396 34.3213 29.2868 34.3213H39.6189C40.1661 34.3213 40.6098 33.8761 40.6098 33.3269Z" fill="#12B7B6"/>
<path d="M11.6929 28.553C11.2498 28.2312 10.6301 28.3309 10.3092 28.7756L8.73327 30.9607L7.94527 30.2058C7.54958 29.8266 6.92222 29.841 6.54427 30.2384C6.16632 30.6355 6.18079 31.2648 6.57667 31.644L8.18597 33.1857C8.37108 33.3631 8.61654 33.4609 8.87012 33.4609C8.90015 33.4609 8.93027 33.4595 8.9603 33.4569C9.24529 33.4307 9.50522 33.2822 9.67298 33.0495L11.9147 29.9414C12.2357 29.4966 12.1364 28.875 11.6929 28.553Z" fill="#12B7B6"/>
</svg>
